name ./resultDataOpenSim/trcMotMarkerGrf/sub06/grf-02-02.mot
datacolumns 19
datarows 10
range 1.44800000 1.48400000
endheader

                time	     ground_force_vx	     ground_force_vy	     ground_force_vz	     ground_force_px	     ground_force_py	     ground_force_pz	   l_ground_force_vx	   l_ground_force_vy	   l_ground_force_vz	   l_ground_force_px	   l_ground_force_py	   l_ground_force_pz	     ground_torque_x	     ground_torque_y	     ground_torque_z	   l_ground_torque_x	   l_ground_torque_y	   l_ground_torque_z	
          1.44800000	         59.82432226	        532.05801651	        -20.01214168	          0.87222480	          0.00000000	          0.10144551	          0.00000000	          0.00000000	          0.00000000	          0.00000000	          0.00000000	          0.00000000	          0.00000000	          3.23251581	          0.00000000	          0.00000000	          0.00000000	          0.00000000	
          1.45200000	         64.69982448	        549.14040935	        -20.84234972	          0.87258657	          0.00000000	          0.10093825	          0.00000000	          0.00000000	          0.00000000	          0.00000000	          0.00000000	          0.00000000	          0.00000000	          3.45318233	          0.00000000	          0.00000000	          0.00000000	          0.00000000	
          1.45600000	         70.31311194	        566.25699429	        -21.60846054	          0.87285441	          0.00000000	          0.10045918	          0.00000000	          0.00000000	          0.00000000	          0.00000000	          0.00000000	          0.00000000	          0.00000000	          3.65907389	          0.00000000	          0.00000000	          0.00000000	          0.00000000	
          1.46000000	         76.44156216	        583.31141523	        -22.16094922	          0.87306475	          0.00000000	          0.10001005	          0.00000000	          0.00000000	          0.00000000	          0.00000000	          0.00000000	          0.00000000	          0.00000000	          3.84731436	          0.00000000	          0.00000000	          0.00000000	          0.00000000	
          1.46400000	         82.83526917	        600.24695150	        -22.39770392	          0.87326847	          0.00000000	          0.09958886	          0.00000000	          0.00000000	          0.00000000	          0.00000000	          0.00000000	          0.00000000	          0.00000000	          4.01765850	          0.00000000	          0.00000000	          0.00000000	          0.00000000	
          1.46800000	         89.28114532	        617.03412502	        -22.28876579	          0.87350267	          0.00000000	          0.09919442	          0.00000000	          0.00000000	          0.00000000	          0.00000000	          0.00000000	          0.00000000	          0.00000000	          4.17110928	          0.00000000	          0.00000000	          0.00000000	          0.00000000	
          1.47200000	         95.65019561	        633.65848680	        -21.88662294	          0.87378155	          0.00000000	          0.09882542	          0.00000000	          0.00000000	          0.00000000	          0.00000000	          0.00000000	          0.00000000	          0.00000000	          4.30871291	          0.00000000	          0.00000000	          0.00000000	          0.00000000	
          1.47600000	        101.91352949	        650.10722797	        -21.31687317	          0.87410454	          0.00000000	          0.09847967	          0.00000000	          0.00000000	          0.00000000	          0.00000000	          0.00000000	          0.00000000	          0.00000000	          4.43109765	          0.00000000	          0.00000000	          0.00000000	          0.00000000	
          1.48000000	        108.12764239	        666.34564343	        -20.75156272	          0.87445208	          0.00000000	          0.09815265	          0.00000000	          0.00000000	          0.00000000	          0.00000000	          0.00000000	          0.00000000	          0.00000000	          4.53878388	          0.00000000	          0.00000000	          0.00000000	          0.00000000	
          1.48400000	        114.39855546	        682.29497429	        -20.37359466	          0.87480310	          0.00000000	          0.09784122	          0.00000000	          0.00000000	          0.00000000	          0.00000000	          0.00000000	          0.00000000	          0.00000000	          4.63282854	          0.00000000	          0.00000000	          0.00000000	          0.00000000	
